<svg id="Layer_1" data-name="Layer 1" xmlns="http://www.w3.org/2000/svg" viewBox="0 0 527.28 194.94"><defs><style>.cls-1{fill:#4230f2;}.cls-2{fill:#5af0bd;}</style></defs><title>Aion Logo Wordmark</title><path class="cls-1" d="M354.79,70.72c14.7,25.59,5.36,57.34-21.39,72.7s-58.87,7.43-73.57-18.16-5.21-57.08,21.54-72.44S340.09,45.13,354.79,70.72Zm-79.6,45.71c10.22,17.79,33,23.41,50.55,13.35a36.6,36.6,0,1,0-36.45-63.48C271.62,76.45,265,98.65,275.19,116.44Z"/><path class="cls-1" d="M401.32,120.29A98.12,98.12,0,0,1,326,193.43l-3.5-16.91a80.79,80.79,0,0,0,62-60.22c.22-.92.42-1.84.6-2.76L402,117Q401.71,118.63,401.32,120.29Z"/><path class="cls-1" d="M403.94,94.74l-17.26.52A80.3,80.3,0,0,0,356.2,34.64l10.73-13.53A97.53,97.53,0,0,1,403.94,94.74Z"/><path class="cls-1" d="M280.85,21.39A80,80,0,0,0,228,79.15l-16.8-4A97.18,97.18,0,0,1,275.38,5Z"/><path class="cls-1" d="M28,126.83l-9.89,23.32H0L45.6,46.84H63.46l45.16,103.31H90l-9.89-23.32ZM54,65.44l-19.48,45.9h39Z"/><path class="cls-1" d="M152,150.15V46.84h17.41V150.15Z"/><path class="cls-1" d="M510.16,150.15l-55-74.08v74.08H437.7V46.84h17.12l55.34,74.23V46.84h17.12V150.15Z"/><path class="cls-2" d="M296.45,194.94a98.73,98.73,0,0,1-12.76-2.16,97.4,97.4,0,0,1-74.87-87.47L226,104a80.18,80.18,0,0,0,61.64,72,81.94,81.94,0,0,0,10.53,1.78Z"/><path class="cls-2" d="M344.82,7.93,338,23.81a81.16,81.16,0,0,0-31.72-6.54l0-17.27a98.57,98.57,0,0,1,38.49,7.93Z"/></svg>