<svg id="Layer_1" data-name="Layer 1" xmlns="http://www.w3.org/2000/svg" viewBox="0 0 70.43 70"><defs><style>.cls-1{fill:#4221cc;}.cls-2{fill:#5af0bd;}</style></defs><title>Aion Logo</title><path class="cls-1" d="M53.15,26.31c4.84,9.47.92,20.73-9,25.79S22.85,53.74,18,44.27s-.87-20.64,9-25.7,21.27-1.74,26.12,7.74M23.69,41.37a13.35,13.35,0,0,0,18,5.69,13.19,13.19,0,1,0-18-5.69"/><path class="cls-1" d="M69,45A35.36,35.36,0,0,1,40.64,70l-1-6.15A29.12,29.12,0,0,0,63.05,43.24c.1-.33.18-.66.27-1l6,1.53Q69.2,44.38,69,45"/><path class="cls-1" d="M70.42,35.82,64.2,35.7a28.94,28.94,0,0,0-9.91-22.36l4.1-4.68a35.15,35.15,0,0,1,12,27.15"/><path class="cls-1" d="M27.4,7.25a28.84,28.84,0,0,0-20,19.86l-6-1.73A35,35,0,0,1,25.72,1.26Z"/><path class="cls-2" d="M30,70a35.48,35.48,0,0,1-4.56-1A35.1,35.1,0,0,1,0,36.2L6.22,36A28.9,28.9,0,0,0,27.14,63a29.65,29.65,0,0,0,3.76.83Z"/><path class="cls-2" d="M50.67,3.53l-2.72,5.6a29.25,29.25,0,0,0-11.3-2.91L36.95,0A35.53,35.53,0,0,1,50.67,3.53"/></svg>